HIERARCHY
ROOT Hips
{
  OFFSET -9.17366 88.0764 220.268
  CHANNELS 6 Xposition Yposition Zposition Zrotation Xrotation Yrotation
  JOINT Spine
  {
    OFFSET 0 10.1816 0.1315
    CHANNELS 6 Xposition Yposition Zposition Zrotation Xrotation Yrotation
    JOINT Spine1
    {
      OFFSET 0 10.0835 -1.0008
      CHANNELS 6 Xposition Yposition Zposition Zrotation Xrotation Yrotation
      JOINT Spine2
      {
        OFFSET 0 9.1 -1.3734
        CHANNELS 6 Xposition Yposition Zposition Zrotation Xrotation Yrotation
        JOINT Neck
        {
          OFFSET 0 16.6717 -2.5162
          CHANNELS 6 Xposition Yposition Zposition Zrotation Xrotation Yrotation
          JOINT Head
          {
            OFFSET 0 9.6179 1.685
            CHANNELS 6 Xposition Yposition Zposition Zrotation Xrotation Yrotation
            JOINT HeadTop_End
            {
              OFFSET 0 17.8152 2.585
              CHANNELS 6 Xposition Yposition Zposition Zrotation Xrotation Yrotation
              End Site
              {
                OFFSET 0 0 0
              }
            }
            JOINT LeftEye
            {
              OFFSET 3.0676 6.4095 9.2836
              CHANNELS 6 Xposition Yposition Zposition Zrotation Xrotation Yrotation
              End Site
              {
                OFFSET 0 0 0
              }
            }
            JOINT RightEye
            {
              OFFSET -3.0676 6.4095 9.2835
              CHANNELS 6 Xposition Yposition Zposition Zrotation Xrotation Yrotation
              End Site
              {
                OFFSET 0 0 0
              }
            }
          }
        }
        JOINT LeftShoulder
        {
          OFFSET 4.5704 10.946 -2.628
          CHANNELS 6 Xposition Yposition Zposition Zrotation Xrotation Yrotation
          JOINT LeftArm
          {
            OFFSET 10.5924 -0.5246 -2.2321
            CHANNELS 6 Xposition Yposition Zposition Zrotation Xrotation Yrotation
            JOINT LeftForeArm
            {
              OFFSET 27.8415 -0.0001 0
              CHANNELS 6 Xposition Yposition Zposition Zrotation Xrotation Yrotation
              JOINT LeftHand
              {
                OFFSET 28.3288 0 0
                CHANNELS 6 Xposition Yposition Zposition Zrotation Xrotation Yrotation
                JOINT LeftHandThumb1
                {
                  OFFSET 2.4661 -1.575 2.6824
                  CHANNELS 6 Xposition Yposition Zposition Zrotation Xrotation Yrotation
                  JOINT LeftHandThumb2
                  {
                    OFFSET 3.2298 -1.8647 1.8647
                    CHANNELS 6 Xposition Yposition Zposition Zrotation Xrotation Yrotation
                    JOINT LeftHandThumb3
                    {
                      OFFSET 2.6526 -1.5315 1.5315
                      CHANNELS 6 Xposition Yposition Zposition Zrotation Xrotation Yrotation
                      End Site
                      {
                        OFFSET 1.9546 -1.1285 1.1285
                      }
                    }
                  }
                }
                JOINT LeftHandIndex1
                {
                  OFFSET 9.1093 -0.5171 2.2601
                  CHANNELS 6 Xposition Yposition Zposition Zrotation Xrotation Yrotation
                  JOINT LeftHandIndex2
                  {
                    OFFSET 3.6764 0 0
                    CHANNELS 6 Xposition Yposition Zposition Zrotation Xrotation Yrotation
                    JOINT LeftHandIndex3
                    {
                      OFFSET 2.8831 0 0
                      CHANNELS 6 Xposition Yposition Zposition Zrotation Xrotation Yrotation
                      End Site
                      {
                        OFFSET 2.3927 0 0
                      }
                    }
                  }
                }
                JOINT LeftHandMiddle1
                {
                  OFFSET 9.5334 0 0
                  CHANNELS 6 Xposition Yposition Zposition Zrotation Xrotation Yrotation
                  JOINT LeftHandMiddle2
                  {
                    OFFSET 3.6982 0 0
                    CHANNELS 6 Xposition Yposition Zposition Zrotation Xrotation Yrotation
                    JOINT LeftHandMiddle3
                    {
                      OFFSET 2.9509 0 0
                      CHANNELS 6 Xposition Yposition Zposition Zrotation Xrotation Yrotation
                      End Site
                      {
                        OFFSET 2.8339 0 0
                      }
                    }
                  }
                }
                JOINT LeftHandRing1
                {
                  OFFSET 9.1045 -0.0439 -1.8651
                  CHANNELS 6 Xposition Yposition Zposition Zrotation Xrotation Yrotation
                  JOINT LeftHandRing2
                  {
                    OFFSET 3.154 0 0
                    CHANNELS 6 Xposition Yposition Zposition Zrotation Xrotation Yrotation
                    JOINT LeftHandRing3
                    {
                      OFFSET 2.9377 0 0
                      CHANNELS 6 Xposition Yposition Zposition Zrotation Xrotation Yrotation
                      End Site
                      {
                        OFFSET 2.6475 0 0
                      }
                    }
                  }
                }
                JOINT LeftHandPinky1
                {
                  OFFSET 8.0778 -0.4887 -3.8061
                  CHANNELS 6 Xposition Yposition Zposition Zrotation Xrotation Yrotation
                  JOINT LeftHandPinky2
                  {
                    OFFSET 3.6 0 0
                    CHANNELS 6 Xposition Yposition Zposition Zrotation Xrotation Yrotation
                    JOINT LeftHandPinky3
                    {
                      OFFSET 2.1142 0 0
                      CHANNELS 6 Xposition Yposition Zposition Zrotation Xrotation Yrotation
                      End Site
                      {
                        OFFSET 1.9757 0 0
                      }
                    }
                  }
                }
              }
            }
          }
        }
        JOINT RightShoulder
        {
          OFFSET -4.57 10.9462 -2.628
          CHANNELS 6 Xposition Yposition Zposition Zrotation Xrotation Yrotation
          JOINT RightArm
          {
            OFFSET -10.5928 -0.5248 -2.2321
            CHANNELS 6 Xposition Yposition Zposition Zrotation Xrotation Yrotation
            JOINT RightForeArm
            {
              OFFSET -27.8415 0 0
              CHANNELS 6 Xposition Yposition Zposition Zrotation Xrotation Yrotation
              JOINT RightHand
              {
                OFFSET -28.3288 0 0.0001
                CHANNELS 6 Xposition Yposition Zposition Zrotation Xrotation Yrotation
                JOINT RightHandPinky1
                {
                  OFFSET -8.0767 -0.4885 -3.806
                  CHANNELS 6 Xposition Yposition Zposition Zrotation Xrotation Yrotation
                  JOINT RightHandPinky2
                  {
                    OFFSET -3.6 0 0.0001
                    CHANNELS 6 Xposition Yposition Zposition Zrotation Xrotation Yrotation
                    JOINT RightHandPinky3
                    {
                      OFFSET -2.1142 0 0
                      CHANNELS 6 Xposition Yposition Zposition Zrotation Xrotation Yrotation
                      End Site
                      {
                        OFFSET -1.9757 0 0
                      }
                    }
                  }
                }
                JOINT RightHandRing1
                {
                  OFFSET -9.1036 -0.0439 -1.8651
                  CHANNELS 6 Xposition Yposition Zposition Zrotation Xrotation Yrotation
                  JOINT RightHandRing2
                  {
                    OFFSET -3.154 0 0
                    CHANNELS 6 Xposition Yposition Zposition Zrotation Xrotation Yrotation
                    JOINT RightHandRing3
                    {
                      OFFSET -2.9377 0 0
                      CHANNELS 6 Xposition Yposition Zposition Zrotation Xrotation Yrotation
                      End Site
                      {
                        OFFSET -2.6475 0 0
                      }
                    }
                  }
                }
                JOINT RightHandMiddle1
                {
                  OFFSET -9.5325 0 0
                  CHANNELS 6 Xposition Yposition Zposition Zrotation Xrotation Yrotation
                  JOINT RightHandMiddle2
                  {
                    OFFSET -3.6982 0 0
                    CHANNELS 6 Xposition Yposition Zposition Zrotation Xrotation Yrotation
                    JOINT RightHandMiddle3
                    {
                      OFFSET -2.9509 0 0
                      CHANNELS 6 Xposition Yposition Zposition Zrotation Xrotation Yrotation
                      End Site
                      {
                        OFFSET -2.8339 0 0.0001
                      }
                    }
                  }
                }
                JOINT RightHandIndex1
                {
                  OFFSET -9.1083 -0.5168 2.2601
                  CHANNELS 6 Xposition Yposition Zposition Zrotation Xrotation Yrotation
                  JOINT RightHandIndex2
                  {
                    OFFSET -3.6764 0 0
                    CHANNELS 6 Xposition Yposition Zposition Zrotation Xrotation Yrotation
                    JOINT RightHandIndex3
                    {
                      OFFSET -2.8831 0 0
                      CHANNELS 6 Xposition Yposition Zposition Zrotation Xrotation Yrotation
                      End Site
                      {
                        OFFSET -2.3927 0 0
                      }
                    }
                  }
                }
                JOINT RightHandThumb1
                {
                  OFFSET -2.4648 -1.5727 2.6826
                  CHANNELS 6 Xposition Yposition Zposition Zrotation Xrotation Yrotation
                  JOINT RightHandThumb2
                  {
                    OFFSET -3.2298 -1.8647 1.8647
                    CHANNELS 6 Xposition Yposition Zposition Zrotation Xrotation Yrotation
                    JOINT RightHandThumb3
                    {
                      OFFSET -2.6526 -1.5314 1.5314
                      CHANNELS 6 Xposition Yposition Zposition Zrotation Xrotation Yrotation
                      End Site
                      {
                        OFFSET -1.9546 -1.1285 1.1285
                      }
                    }
                  }
                }
              }
            }
          }
        }
      }
    }
  }
  JOINT LeftUpLeg
  {
    OFFSET 8.2078 -6.7517 -1.5996
    CHANNELS 6 Xposition Yposition Zposition Zrotation Xrotation Yrotation
    JOINT LeftLeg
    {
      OFFSET 0 -44.3705 0.2846
      CHANNELS 6 Xposition Yposition Zposition Zrotation Xrotation Yrotation
      JOINT LeftFoot
      {
        OFFSET 0 -44.4279 -2.9822
        CHANNELS 6 Xposition Yposition Zposition Zrotation Xrotation Yrotation
        JOINT LeftToeBase
        {
          OFFSET 0 -8.7287 10.7106
          CHANNELS 6 Xposition Yposition Zposition Zrotation Xrotation Yrotation
          End Site
          {
            OFFSET 0 -0.0007 9.2781
          }
        }
      }
    }
  }
  JOINT RightUpLeg
  {
    OFFSET -8.2078 -6.7517 -1.5996
    CHANNELS 6 Xposition Yposition Zposition Zrotation Xrotation Yrotation
    JOINT RightLeg
    {
      OFFSET 0 -44.3705 0.2862
      CHANNELS 6 Xposition Yposition Zposition Zrotation Xrotation Yrotation
      JOINT RightFoot
      {
        OFFSET 0 -44.4277 -2.9838
        CHANNELS 6 Xposition Yposition Zposition Zrotation Xrotation Yrotation
        JOINT RightToeBase
        {
          OFFSET 0 -8.7287 10.7106
          CHANNELS 6 Xposition Yposition Zposition Zrotation Xrotation Yrotation
          End Site
          {
            OFFSET 0 -0.0007 9.2781
          }
        }
      }
    }
  }
}
MOTION
Frames:	4
Frame Time:	0.0333333
-7.17427 91.7937 178.089 -6.01301 -55.3759 -113.3 2.84217e-014 10.1816 0.1315 -5.20647 10.9874 1.51692 2.84217e-014 10.0835 -1.0008 -1.5035 12.3372 1.67898 0 9.1 -1.3734 -0.961823 12.4262 0.417188 2.84217e-014 16.6717 -2.5162 2.34471 6.02392 2.55191 0 9.6179 1.685 -9.10025 -14.0238 67.8717 -7.10543e-015 17.8152 2.585 2.18663e-015 9.54166e-015 -3.77691e-015 3.0676 6.4095 9.2836 2.18663e-015 9.54166e-015 -3.77691e-015 -3.0676 6.4095 9.2835 2.18663e-015 9.54166e-015 -3.77691e-015 4.5704 10.946 -2.628 -16.8296 3.27509 0.988959 10.5924 -0.5246 -2.2321 -61.4319 10.847 19.1966 27.8415 -0.0001 0 -0.000198482 -4.41327e-006 -22.0047 28.3288 0 0 -5.17777 14.5598 -22.0302 2.4661 -1.575 2.6824 -7.49563 -5.05607 -0.506592 3.2298 -1.8647 1.8647 -15.8263 15.0193 32.5792 2.6526 -1.5315 1.5315 13.2699 13.8261 51.7009 9.1093 -0.5171 2.2601 -80.411 -3.18692 -1.62504 3.6764 0 1.42109e-014 -80.3763 -4.87758 5.77287 2.8831 0 0 -64.7437 -3.35753 5.29415 9.5334 0 0 -80.1461 -7.15781 1.94103 3.6982 -2.84217e-014 0 -78.1307 -4.65215 5.72996 2.9509 0 0 -67.398 -3.60564 5.40442 9.1045 -0.0439 -1.8651 -78.61 -7.0057 5.02091 3.154 0 0 -83.2679 -5.16994 5.81506 2.9377 0 0 -40.2436 -1.385 3.77908 8.0778 -0.4887 -3.8061 -84.1427 -10.443 10.4365 3.6 2.84217e-014 0 -71.9393 -4.04102 5.56612 2.1142 0 0 -66.2857 -3.50106 5.35962 -4.57 10.9462 -2.628 5.72052 2.57244 15.3798 -10.5928 -0.5248 -2.2321 20.6663 6.51518 48.9158 -27.8415 1.42109e-014 0 1.21606e-006 -5.77197e-006 41.7236 -28.3288 0 0.0001 -20.1529 34.104 39.4722 -8.0767 -0.4885 -3.806 44.9591 -5.97439 -25.8703 -3.6 -7.10543e-015 0.0001 26.1813 -0.47556 -2.04651 -2.1142 0 0 55.3652 -2.00517 -3.8211 -9.1036 -0.0439 -1.8651 31.2578 -1.81942 -4.9703 -3.154 0 0 22.6792 -0.358899 -1.78958 -2.9377 -2.84217e-014 0 26.7968 -0.498506 -2.0926 -9.5325 0 0 19.9945 -0.992165 2.09011 -3.6982 0 0 5.49362 -0.0213344 -0.444264 -2.9509 1.42109e-014 0 10.4777 -0.0773811 -0.845957 -9.1083 -0.5168 2.2601 19.5708 -0.654062 18.2074 -3.6764 0 0 4.63242 -0.0151492 -0.3748 -2.8831 1.42109e-014 7.10543e-015 8.26457 -0.0482003 -0.667065 -2.4648 -1.5727 2.6826 7.06457 -16.5534 11.0706 -3.2298 -1.8647 1.8647 2.88666 15.349 -14.0557 -2.6526 -1.5314 1.5314 -0.0353826 -19.5229 32.1104 8.2078 -6.7517 -1.5996 10.2489 -62.3956 38.4665 2.84217e-014 -44.3705 0.2846 -170.697 70.5859 165.351 0 -44.4279 -2.9822 1.02417 -16.8073 7.1733 0 -8.7287 10.7106 -1.32426e-006 -17.8917 2.98367e-005 -8.2078 -6.7517 -1.5996 -82.1095 -51.8452 -45.7847 0 -44.3705 0.2862 -20.2125 61.6298 25.3374 0 -44.4277 -2.9838 -5.63633 -20.9695 13.2241 -2.84217e-014 -8.7287 10.7106 0.0195866 0.221383 -7.54573e-005 
-7.61904 90.6558 183.666 -6.19714 -49.9807 -116.51 0 10.1816 0.1315 -2.32229 11.5109 0.380151 0 10.0835 -1.0008 0.808577 12.8335 0.299584 0 9.1 -1.3734 1.30028 12.742 -0.84773 0 16.6717 -2.5162 3.00277 7.03644 2.87014 0 9.6179 1.685 -5.75929 -12.6547 68.0798 1.42109e-014 17.8152 2.585 -1.19271e-015 6.36111e-015 4.77083e-015 3.0676 6.4095 9.2836 -1.19271e-015 6.36111e-015 4.77083e-015 -3.0676 6.4095 9.2835 -1.19271e-015 6.36111e-015 4.77083e-015 4.5704 10.946 -2.628 -15.7033 3.29036 0.0875108 10.5924 -0.5246 -2.2321 -61.0162 20.2732 11.2527 27.8415 -0.0001 0 -0.000198245 1.00824e-005 -36.6647 28.3288 0 0 -21.5071 13.8176 -10.3796 2.4661 -1.575 2.6824 -7.15211 -6.53983 -1.20926 3.2298 -1.8647 1.8647 -14.7032 15.7288 29.3328 2.6526 -1.5315 1.5315 14.467 8.54487 40.6217 9.1093 -0.5171 2.2601 -72.9574 -2.85294 -3.68986 3.6764 0 -2.84217e-014 -69.2389 -3.7806 5.47412 2.8831 0 -2.84217e-014 -57.1528 -2.6793 4.91686 9.5334 0 0 -73.0899 -6.38163 1.78264 3.6982 0 2.84217e-014 -67.0598 -3.57377 5.39102 2.9509 0 0 -59.831 -2.91282 5.06018 9.1045 -0.0439 -1.8651 -73.3198 -6.42472 5.37316 3.154 0 0 -73.4595 -4.18941 5.61246 2.9377 -7.10543e-015 -2.84217e-014 -37.4682 -1.20706 3.55814 8.0778 -0.4887 -3.8061 -79.9759 -9.9535 13.1869 3.6 0 0 -64.8917 -3.37123 5.30058 2.1142 3.55271e-015 -2.84217e-014 -62.7629 -3.17584 5.20439 -4.57 10.9462 -2.628 8.2623 2.89243 14.6904 -10.5928 -0.5248 -2.2321 19.8568 6.13578 45.883 -27.8415 0 0 -9.9664e-006 -4.34804e-006 42.0049 -28.3288 2.84217e-014 0.0001 -25.4582 44.2003 45.4587 -8.0767 -0.4885 -3.806 42.324 -5.7032 -27.148 -3.6 1.42109e-014 0.0001 22.4682 -0.351738 -1.77233 -2.1142 0 0 53.9868 -1.91394 -3.7564 -9.1036 -0.0439 -1.8651 27.9872 -1.57322 -4.94692 -3.154 0 -1.42109e-014 17.6386 -0.218202 -1.40631 -2.9377 0 1.42109e-014 25.5181 -0.452836 -1.99957 -9.5325 -7.10543e-015 0 15.7422 -0.722718 2.50412 -3.6982 0 -1.42109e-014 1.45498e-005 1.22231e-005 -1.39067e-005 -2.9509 -1.42109e-014 0 6.17786 -0.0269501 -0.501429 -9.1083 -0.5168 2.2601 15.3151 -0.352372 19.633 -3.6764 1.42109e-014 7.10543e-015 1.42474e-005 -1.326e-005 1.82101e-005 -2.8831 -1.42109e-014 0 3.97644 -0.011164 -0.32181 -2.4648 -1.5727 2.6826 7.10813 -17.4045 11.6267 -3.2298 -1.8647 1.8647 2.06843 15.1429 -12.3596 -2.6526 -1.5314 1.5314 3.48511 -20.779 39.4304 8.2078 -6.7517 -1.5996 -4.70941 -50.9798 20.9796 2.84217e-014 -44.3705 0.2846 -130.584 84.1852 127.836 0 -44.4279 -2.9822 -13.4534 -13.3275 0.60359 -2.84217e-014 -8.7287 10.7106 1.64983e-005 -13.1008 -1.19427e-005 -8.2078 -6.7517 -1.5996 -80.2157 -54.5605 -45.6593 0 -44.3705 0.2862 -20.4838 61.9747 27.1087 2.84217e-014 -44.4277 -2.9838 -2.94561 -19.1892 14.4683 -2.84217e-014 -8.7287 10.7106 0.0206503 0.219667 -8.0971e-005 
-8.02355 89.36 188.814 -3.7849 -43.2239 -116.889 0 10.1816 0.1315 0.335408 11.0364 -0.708389 2.84217e-014 10.0835 -1.0008 2.48006 12.2572 -0.802009 0 9.1 -1.3734 2.86843 12.0732 -1.73553 0 16.6717 -2.5162 3.11929 8.3306 3.47322 0 9.6179 1.685 -3.94192 -9.59612 68.7903 0 17.8152 2.585 2.38542e-015 -3.18055e-015 -5.1684e-015 3.0676 6.4095 9.2836 2.38542e-015 -3.18055e-015 -5.1684e-015 -3.0676 6.4095 9.2835 2.38542e-015 -3.18055e-015 -5.1684e-015 4.5704 10.946 -2.628 -14.1119 3.13761 -0.348353 10.5924 -0.5246 -2.2321 -56.0115 21.4027 8.04111 27.8415 -0.0001 0 -0.000199877 1.58526e-006 -55.9627 28.3288 1.42109e-014 -2.84217e-014 -27.1664 11.5918 7.08476 2.4661 -1.575 2.6824 -6.81573 -8.25241 -2.06897 3.2298 -1.8647 1.8647 -13.2502 16.2485 25.649 2.6526 -1.5315 1.5315 14.444 2.35617 28.0397 9.1093 -0.5171 2.2601 -64.3493 -2.44994 -6.16183 3.6764 0 -2.84217e-014 -56.5614 -2.62863 4.88374 2.8831 -7.10543e-015 0 -48.4234 -1.96894 4.377 9.5334 0 2.84217e-014 -64.8697 -5.46632 1.48849 3.6982 0 0 -54.5 -2.45481 4.7643 2.9509 7.10543e-015 0 -51.1191 -2.17941 4.55514 9.1045 -0.0439 -1.8651 -67.1165 -5.73665 5.7075 3.154 -1.42109e-014 -2.84217e-014 -62.3985 -3.14274 5.18719 2.9377 7.10543e-015 0 -34.3978 -1.02298 3.30408 8.0778 -0.4887 -3.8061 -75.0579 -9.35886 16.2592 3.6 1.42109e-014 -2.84217e-014 -56.9017 -2.65774 4.90284 2.1142 1.42109e-014 -2.84217e-014 -58.9701 -2.83702 5.01529 -4.57 10.9462 -2.628 10.8099 2.92056 12.5704 -10.5928 -0.5248 -2.2321 17.78 8.39233 37.1956 -27.8415 -2.84217e-014 0 -5.86508e-006 -8.82176e-007 44.7366 -28.3288 -2.84217e-014 0.0001 -42.7841 53.0532 59.6214 -8.0767 -0.4885 -3.806 41.3043 -5.57159 -27.8311 -3.6 0 0.0001 20.5416 -0.294562 -1.62707 -2.1142 7.10543e-015 0 52.9353 -1.84542 -3.7056 -9.1036 -0.0439 -1.8651 26.6441 -1.47495 -4.94729 -3.154 7.10543e-015 -2.84217e-014 14.9357 -0.156803 -1.19613 -2.9377 0 0 24.7257 -0.425559 -1.94143 -9.5325 0 0 13.9239 -0.613796 2.70555 -3.6982 0 0 -1.09934e-006 -1.65737e-006 -2.33924e-006 -2.9509 7.10543e-015 0 4.16662 -0.01226 -0.339205 -9.1083 -0.5168 2.2601 13.4506 -0.223286 20.3603 -3.6764 -7.10543e-015 0 -3.138e-006 -1.56213e-006 -1.14325e-006 -2.8831 1.42109e-014 -1.42109e-014 1.95394 -0.00269583 -0.158234 -2.4648 -1.5727 2.6826 7.12888 -17.828 11.8224 -3.2298 -1.8647 1.8647 1.77049 15.0929 -11.4478 -2.6526 -1.5314 1.5314 4.55647 -20.9342 41.1098 8.2078 -6.7517 -1.5996 -8.45252 -38.9868 13.2288 0 -44.3705 0.2846 -13.77 76.8459 13.9213 0 -44.4279 -2.9822 -16.9802 -15.2308 3.42605 0 -8.7287 10.7106 2.59599e-006 -9.29637 -7.00859e-006 -8.2078 -6.7517 -1.5996 -74.6538 -57.1765 -42.4219 0 -44.3705 0.2862 -19.5521 62.338 27.2055 0 -44.4277 -2.9838 -0.207478 -17.5628 13.4636 0 -8.7287 10.7106 0.0178823 0.223732 -6.62006e-005 
-8.354 87.2766 193.939 0.256441 -36.2147 -115.327 0 10.1816 0.1315 2.72971 9.52118 -1.60828 0 10.0835 -1.0008 3.33787 10.5992 -1.30149 2.84217e-014 9.1 -1.3734 3.5854 10.4214 -1.9685 0 16.6717 -2.5162 3.05058 9.45232 4.34563 0 9.6179 1.685 -4.76747 -6.2244 70.7278 0 17.8152 2.585 5.56597e-015 3.18055e-015 7.95139e-016 3.0676 6.4095 9.2836 5.56597e-015 3.18055e-015 7.95139e-016 -3.0676 6.4095 9.2835 5.56597e-015 3.18055e-015 7.95139e-016 4.5704 10.946 -2.628 -12.3624 2.88101 -0.413775 10.5924 -0.5246 -2.2321 -50.6719 18.4863 6.24225 27.8415 -0.0001 0 -0.000266928 -2.16677e-005 -70.2771 28.3288 -1.42109e-014 0 -20.0495 13.1023 6.12799 2.4661 -1.575 2.6824 -6.53434 -10.0529 -3.04707 3.2298 -1.8647 1.8647 -11.4634 15.9063 21.9403 2.6526 -1.5315 1.5315 12.9023 -3.41737 14.4382 9.1093 -0.5171 2.2601 -55.2391 -2.024 -8.86229 3.6764 7.10543e-015 0 -43.4248 -1.60188 4.02142 2.8831 0 2.84217e-014 -39.2539 -1.32033 3.70128 9.5334 0 0 -56.0758 -4.49468 1.04638 3.6982 7.10543e-015 0 -41.5487 -1.47235 3.87994 2.9509 0 -2.84217e-014 -41.9532 -1.49989 3.9108 9.1045 -0.0439 -1.8651 -60.4246 -4.99515 5.97041 3.154 -7.10543e-015 -2.84217e-014 -51.0895 -2.17702 4.55323 2.9377 1.42109e-014 0 -31.3499 -0.853983 3.04256 8.0778 -0.4887 -3.8061 -69.7044 -8.70191 19.3616 3.6 7.10543e-015 0 -48.6747 -1.9882 4.39402 2.1142 0 0 -55.3623 -2.527 4.81502 -4.57 10.9462 -2.628 12.0143 2.64289 10.2397 -10.5928 -0.5248 -2.2321 15.4135 13.2288 25.999 -27.8415 -2.84217e-014 7.10543e-015 -5.33158e-007 -4.58766e-006 45.0482 -28.3288 2.84217e-014 0.0001 -70.8573 58.1155 82.6982 -8.0767 -0.4885 -3.806 41.5046 -5.55237 -28.0232 -3.6 0 0.0001 20.086 -0.28176 -1.59244 -2.1142 0 0 52.2584 -1.80179 -3.67223 -9.1036 -0.0439 -1.8651 26.7768 -1.48457 -4.96982 -3.154 0 2.84217e-014 14.1848 -0.141508 -1.13726 -2.9377 0 2.84217e-014 24.3741 -0.413727 -1.91552 -9.5325 0 -2.84217e-014 13.9879 -0.617322 2.72704 -3.6982 0 0 3.37934e-015 1.19271e-015 -6.36111e-015 -2.9509 7.10543e-015 0 3.97039 -0.0111401 -0.323348 -9.1083 -0.5168 2.2601 13.4424 -0.218052 20.5077 -3.6764 -7.10543e-015 -1.42109e-014 2.36808e-005 -1.73558e-006 5.77498e-006 -2.8831 0 0 1.73306 -0.00212311 -0.140345 -2.4648 -1.5727 2.6826 7.12253 -17.9042 11.7479 -3.2298 -1.8647 1.8647 1.85602 15.1743 -11.1889 -2.6526 -1.5314 1.5314 4.72609 -20.8434 41.1005 8.2078 -6.7517 -1.5996 -6.71933 -31.1281 10.9905 0 -44.3705 0.2846 -0.130374 65.6266 0.161495 -2.84217e-014 -44.4279 -2.9822 -13.5009 -21.3234 14.6618 0 -8.7287 10.7106 4.5784e-006 -5.26465 8.40427e-006 -8.2078 -6.7517 -1.5996 -70.0122 -59.6819 -40.5733 0 -44.3705 0.2862 -18.836 63.5389 27.076 0 -44.4277 -2.9838 2.83504 -16.4692 11.9166 0 -8.7287 10.7106 0.0155279 0.228014 -3.35501e-005 
